<?xml version="1.0" encoding="utf-8"?>
<!-- Generator: Adobe Illustrator 15.1.0, SVG Export Plug-In  -->
<!DOCTYPE svg PUBLIC "-//W3C//DTD SVG 1.1//EN" "http://www.w3.org/Graphics/SVG/1.1/DTD/svg11.dtd" [
	<!ENTITY ns_flows "http://ns.adobe.com/Flows/1.0/">
]>
<svg version="1.1"
	 xmlns="http://www.w3.org/2000/svg" xmlns:xlink="http://www.w3.org/1999/xlink" xmlns:a="http://ns.adobe.com/AdobeSVGViewerExtensions/3.0/"
	 x="0px" y="0px" width="96px" height="96px" viewBox="0 0 96 96" overflow="visible" enable-background="new 0 0 96 96"
	 xml:space="preserve">
<defs>
</defs>
<rect id="BOUNDING_BOX_3_" fill="none" width="96" height="96"/>
<path id="SHADOW_1_" opacity="0.4" d="M88.023,49c0,29.633-10.364,40-40,40c-29.635,0-40-10.367-40-40c0-29.634,10.366-40,40-40
	C77.659,9,88.023,19.365,88.023,49z"/>
<linearGradient id="BLUE_4_4_" gradientUnits="userSpaceOnUse" x1="47.9995" y1="8.0107" x2="47.9995" y2="87.9897">
	<stop  offset="0.0364" style="stop-color:#4791D9"/>
	<stop  offset="0.2496" style="stop-color:#4288CF"/>
	<stop  offset="0.6102" style="stop-color:#366EB5"/>
	<stop  offset="1" style="stop-color:#264C91"/>
</linearGradient>
<path id="BLUE_4_3_" fill="url(#BLUE_4_4_)" d="M8,47.989c0,29.633,10.365,40,40,40c29.637,0,40-10.367,40-40
	c0-28.985-9.926-39.53-38.091-39.979h-3.817C17.928,8.459,8,19.004,8,47.989z"/>
<linearGradient id="HIGHLIGHT_BLU4_2_" gradientUnits="userSpaceOnUse" x1="47.9995" y1="8.2559" x2="47.9995" y2="87.5043">
	<stop  offset="0.0364" style="stop-color:#FFFFFF"/>
	<stop  offset="0.129" style="stop-color:#F5F7FA"/>
	<stop  offset="0.2858" style="stop-color:#DBE1ED"/>
	<stop  offset="0.4876" style="stop-color:#AFBDD7"/>
	<stop  offset="0.7265" style="stop-color:#738CB8"/>
	<stop  offset="0.9942" style="stop-color:#284D92"/>
	<stop  offset="1" style="stop-color:#264C91"/>
</linearGradient>
<path id="HIGHLIGHT_BLU4_1_" opacity="0.25" fill="url(#HIGHLIGHT_BLU4_2_)" d="M48,8C18.365,8,8,18.365,8,48
	c0,29.633,10.365,40,40,40c29.637,0,40-10.367,40-40C88,18.365,77.637,8,48,8z M48,87.023C18.842,87.023,9,77.176,9,48
	S18.842,8.977,48,8.977S87,18.824,87,48S77.158,87.023,48,87.023z"/>
<rect id="BOUNDING_BOX_2_" x="13.5" y="18.5" fill="none" width="67" height="57"/>
<path opacity="0.3" enable-background="new    " d="M66.295,27.75h-12.09c-1.91,0-3.46,1.56-3.46,3.45v12.1
	c0,1.89,1.55,3.45,3.46,3.45h12.09c1.9,0,3.45-1.56,3.45-3.45V31.2C69.745,29.31,68.195,27.75,66.295,27.75z M66.745,43.75h-13v-13
	h13V43.75z M42.295,51.75h-12.09c-1.91,0-3.46,1.561-3.46,3.449v12.1c0,1.891,1.55,3.451,3.46,3.451h12.09
	c1.9,0,3.45-1.561,3.45-3.451v-12.1C45.745,53.311,44.195,51.75,42.295,51.75z M42.745,67.75h-13v-13h13V67.75z M28.565,29.178
	l-0.389,0.377c-5.895,5.912-4.594,9.788,0.176,14.569c4.792,4.802,8.707,6.082,14.574,0.206l0.39-0.375
	c5.906-5.919,4.583-9.807-0.18-14.584C38.348,24.579,34.441,23.29,28.565,29.178z M66.295,51.75h-12.09
	c-1.91,0-3.46,1.561-3.46,3.449v12.1c0,1.891,1.55,3.451,3.46,3.451h12.09c1.9,0,3.45-1.561,3.45-3.451v-12.1
	C69.745,53.311,68.195,51.75,66.295,51.75z M66.745,67.75h-13v-13h13V67.75z"/>
<path opacity="0.15" enable-background="new    " d="M54.205,70.75c-2.459,0-4.46-1.996-4.46-4.451v-12.1
	c0-2.453,2.001-4.449,4.46-4.449h12.09c2.454,0,4.45,1.996,4.45,4.449v12.1c0,2.455-1.996,4.451-4.45,4.451H54.205z M65.745,65.75
	v-11h-11v11H65.745z M30.205,70.75c-2.46,0-4.46-1.996-4.46-4.451v-12.1c0-2.453,2-4.449,4.46-4.449h12.09
	c2.454,0,4.45,1.996,4.45,4.449v12.1c0,2.455-1.997,4.451-4.45,4.451H30.205z M41.745,65.75v-11h-11v11H41.745z M35.714,48.25
	c-3.244,0-6.017-2.362-8.07-4.42c-4.837-4.848-6.718-9.42-0.176-15.981l0.401-0.389c2.862-2.868,5.38-4.209,7.912-4.209
	c2.56,0,4.971,1.32,8.062,4.413c4.841,4.858,6.726,9.437,0.18,15.998l-0.404,0.388C40.763,46.911,38.246,48.25,35.714,48.25
	L35.714,48.25z M54.205,46.75c-2.459,0-4.46-1.997-4.46-4.45V30.2c0-2.453,2.001-4.45,4.46-4.45h12.09c2.454,0,4.45,1.997,4.45,4.45
	v12.1c0,2.454-1.996,4.45-4.45,4.45H54.205z M65.745,41.75v-11h-11v11H65.745z"/>
<path opacity="0.15" enable-background="new    " d="M66.295,26.75h-12.09c-1.91,0-3.46,1.56-3.46,3.45v12.1
	c0,1.89,1.55,3.45,3.46,3.45h12.09c1.9,0,3.45-1.56,3.45-3.45V30.2C69.745,28.31,68.195,26.75,66.295,26.75z M66.745,42.75h-13v-13
	h13V42.75z M42.295,50.75h-12.09c-1.91,0-3.46,1.561-3.46,3.449v12.1c0,1.891,1.55,3.451,3.46,3.451h12.09
	c1.9,0,3.45-1.561,3.45-3.451v-12.1C45.745,52.311,44.195,50.75,42.295,50.75z M42.745,66.75h-13v-13h13V66.75z M28.565,28.178
	l-0.389,0.377c-5.895,5.912-4.594,9.788,0.176,14.569c4.792,4.803,8.707,6.082,14.574,0.206l0.39-0.375
	c5.906-5.919,4.583-9.807-0.18-14.584C38.348,23.579,34.441,22.29,28.565,28.178z M66.295,50.75h-12.09
	c-1.91,0-3.46,1.561-3.46,3.449v12.1c0,1.891,1.55,3.451,3.46,3.451h12.09c1.9,0,3.45-1.561,3.45-3.451v-12.1
	C69.745,52.311,68.195,50.75,66.295,50.75z M66.745,66.75h-13v-13h13V66.75z"/>
<linearGradient id="SVGID_1_" gradientUnits="userSpaceOnUse" x1="242.9961" y1="-157.7495" x2="242.9961" y2="-112.25" gradientTransform="matrix(1 0 0 -1 -196 -88)">
	<stop  offset="0" style="stop-color:#D0CBC5"/>
	<stop  offset="0.5031" style="stop-color:#FAFCEF"/>
	<stop  offset="0.9693" style="stop-color:#FFFFFF"/>
</linearGradient>
<path fill="url(#SVGID_1_)" d="M66.295,26.75h-12.09c-1.91,0-3.46,1.56-3.46,3.45v12.1c0,1.89,1.55,3.45,3.46,3.45h12.09
	c1.9,0,3.45-1.56,3.45-3.45V30.2C69.745,28.31,68.195,26.75,66.295,26.75z M66.745,42.75h-13v-13h13V42.75z M42.295,50.75h-12.09
	c-1.91,0-3.46,1.561-3.46,3.449v12.1c0,1.891,1.55,3.451,3.46,3.451h12.09c1.9,0,3.45-1.561,3.45-3.451v-12.1
	C45.745,52.311,44.195,50.75,42.295,50.75z M42.745,66.75h-13v-13h13V66.75z M28.565,28.178l-0.389,0.377
	c-5.895,5.912-4.594,9.788,0.176,14.569c4.792,4.803,8.707,6.082,14.574,0.206l0.39-0.375c5.906-5.919,4.583-9.807-0.18-14.584
	C38.348,23.579,34.441,22.29,28.565,28.178z M66.295,50.75h-12.09c-1.91,0-3.46,1.561-3.46,3.449v12.1
	c0,1.891,1.55,3.451,3.46,3.451h12.09c1.9,0,3.45-1.561,3.45-3.451v-12.1C69.745,52.311,68.195,50.75,66.295,50.75z M66.745,66.75
	h-13v-13h13V66.75z"/>
<path fill="#FFFFFF" d="M29.745,67.75v-1h13v1H29.745z M42.295,50.75h-12.09c-1.91,0-3.46,1.561-3.46,3.449v1
	c0-1.889,1.55-3.449,3.46-3.449h12.09c1.9,0,3.45,1.561,3.45,3.449v-1C45.745,52.311,44.195,50.75,42.295,50.75z M66.745,43.75v-1
	h-13v1H66.745z M66.745,67.75v-1h-13v1H66.745z M28.565,28.178l-0.389,0.377c-2.965,2.974-4.107,5.432-3.905,7.75
	c0.164-2.029,1.362-4.2,3.905-6.75l0.389-0.377c5.876-5.888,9.783-4.599,14.571,0.192c2.369,2.376,3.884,4.532,4.085,6.828
	c0.215-2.679-1.375-5.11-4.085-7.828C38.348,23.579,34.441,22.29,28.565,28.178z M66.295,26.75h-12.09c-1.91,0-3.46,1.56-3.46,3.45
	v1c0-1.89,1.55-3.45,3.46-3.45h12.09c1.9,0,3.45,1.56,3.45,3.45v-1C69.745,28.31,68.195,26.75,66.295,26.75z M66.295,50.75h-12.09
	c-1.91,0-3.46,1.561-3.46,3.449v1c0-1.889,1.55-3.449,3.46-3.449h12.09c1.9,0,3.45,1.561,3.45,3.449v-1
	C69.745,52.311,68.195,50.75,66.295,50.75z"/>
</svg>
